<?xml version="1.0" standalone="no"?>
<!DOCTYPE svg PUBLIC "-//W3C//DTD SVG 20010904//EN" "http://www.w3.org/TR/2001/REC-SVG-20010904/DTD/svg10.dtd">
<!-- Created using Krita: https://krita.org -->
<svg xmlns="http://www.w3.org/2000/svg" 
    xmlns:xlink="http://www.w3.org/1999/xlink"
    xmlns:krita="http://krita.org/namespaces/svg/krita"
    xmlns:sodipodi="http://sodipodi.sourceforge.net/DTD/sodipodi-0.dtd"
    width="11.52pt"
    height="11.52pt"
    viewBox="0 0 11.52 11.52">
<defs/>
<path id="shape0" transform="matrix(0.72 0 0 0.72 3.88578058618805e-15 0.000184082820040982)" fill="#ffffff" stroke-opacity="0" stroke="#000000" stroke-width="0" stroke-linecap="square" stroke-linejoin="bevel" d="M6 0.277744C6.09735 0.396466 6.15701 0.541635 6.17126 0.694505C6.18552 0.847376 6.15373 1.00107 6.08 1.13574C5.50157 2.19703 5.19959 3.38707 5.202 4.59574C5.202 8.61674 8.48 11.8727 12.52 11.8727C13.048 11.8721 13.559 11.8187 14.053 11.7127C14.2041 11.6804 14.3614 11.6931 14.5054 11.7493C14.6493 11.8055 14.7737 11.9026 14.863 12.0287C14.9575 12.16 15.0057 12.3189 15.0001 12.4805C14.9945 12.6421 14.9353 12.7974 14.832 12.9217C14.0477 13.8851 13.0581 14.6614 11.9358 15.1938C10.8134 15.7263 9.58626 16.0016 8.344 15.9997C3.734 15.9997 0 12.2857 0 7.70974C0 4.26574 2.114 1.31174 5.124 0.0597443C5.27386 -0.00394457 5.44046 -0.0171301 5.59847 0.0221925C5.75648 0.061515 5.89747 0.151246 6 0.277744M4.858 1.31074C3.70077 1.93161 2.73311 2.85458 2.05827 3.98119C1.38344 5.1078 1.02631 6.39649 1.025 7.70974C1.025 11.7297 4.304 14.9857 8.344 14.9857C9.31139 14.9872 10.2695 14.7969 11.1629 14.4258C12.0563 14.0547 12.8673 13.5102 13.549 12.8237C13.2117 12.8657 12.8687 12.8867 12.52 12.8867C7.91 12.8867 4.177 9.17274 4.177 4.59674C4.177 3.42974 4.419 2.31874 4.858 1.31074" sodipodi:nodetypes="ccccccccccccccccccccccccc"/>
</svg>
